# AST/ASF file generated using VICON BodyLanguage
# -----------------------------------------------
:version 1.10
:name VICON
:units
  mass 1.0
  length 0.45
  angle deg
:documentation
   .ast/.asf automatically generated from VICON data using
   VICON BodyBuilder and BodyLanguage model FoxedUp or BRILLIANT.MOD
:root
   order TX TY TZ RX RY RZ
   axis XYZ
   position 0 0 0  
   orientation 0 0 0 
:bonedata
  begin
     id 1 
     name lhipjoint
     direction 0.692814 -0.645514 0.321437 
     length 2.38754 
     axis 0 0 0  XYZ
  end
  begin
     id 2 
     name lfemur
     direction 0.34202 -0.939693 0  
     length 6.41921  
     axis 0 0 20  XYZ
    dof rx ry rz
    limits (-160.0 20.0)
           (-70.0 70.0)
           (-60.0 70.0)
  end
  begin
     id 3 
     name ltibia
     direction 0.34202 -0.939693 0   
     length 6.98247   
     axis 0 0 20   XYZ
    dof rx
    limits (-10.0 170.0)
  end
  begin
     id 4 
     name lfoot
     direction 0.0947186 -0.260237 0.960888   
     length 1.83034   
     axis -90 7.62852e-016 20   XYZ
    dof rx rz
    limits (-45.0 90.0)
           (-70.0 20.0)
  end
  begin
     id 5 
     name ltoes
     direction 1.53538e-011 -4.21952e-011 1   
     length 0.920499   
     axis -90 7.62852e-016 20   XYZ
    dof rx
    limits (-90.0 20.0)
  end
  begin
     id 6 
     name rhipjoint
     direction -0.631686 -0.693949 0.345555   
     length 2.2209  
     axis 0 0 0  XYZ 
  end
  begin
     id 7 
     name rfemur
     direction -0.34202 -0.939693 0   
     length 6.49542   
     axis 0 0 -20   XYZ
    dof rx ry rz
    limits (-160.0 20.0)
           (-70.0 70.0)
           (-70.0 60.0)
  end
  begin
     id 8 
     name rtibia
     direction -0.34202 -0.939693 0   
     length 7.21712   
     axis 0 0 -20   XYZ
    dof rx
    limits (-10.0 170.0)
 end
 begin
     id 9 
     name rfoot
     direction -0.0825378 -0.226771 0.970444   
     length 1.89724  
     axis -90 -7.62852e-016 -20   XYZ
    dof rx rz
    limits (-45.0 90.0)
           (-20.0 70.0)
  end
  begin
     id 10 
     name rtoes
     direction -1.53515e-011 -4.22016e-011 1   
     length 0.955868   
     axis -90 -7.62852e-016 -20   XYZ
    dof rx
    limits (-90.0 20.0)
  end
  begin
     id 11 
     name lowerback
     direction -0.0104711 0.984802 -0.173368   
     length 1.84931   
     axis 0 0 0   XYZ
    dof rx ry rz
    limits (-20.0 45.0)
           (-30.0 30.0)
           (-30.0 30.0)
  end
  begin
     id 12 
     name upperback
     direction -0.00286433 0.999996 -0.000382853   
     length 1.85768   
     axis 0 0 0   XYZ
    dof rx ry rz
    limits (-20.0 45.0)
           (-30.0 30.0)
           (-30.0 30.0)
  end
  begin
     id 13 
     name thorax
     direction 0.00167534 0.996793 0.0800069   
     length 1.92   
     axis 0 0 0   XYZ
    dof rx ry rz
    limits (-20.0 45.0)
           (-30.0 30.0)
           (-30.0 30.0)
  end
  begin
     id 14 
     name lowerneck
     direction -0.0672491 0.995415 0.068018   
     length 1.58923   
     axis 0 0 0   XYZ
    dof rx ry rz
    limits (-20.0 45.0)
           (-30.0 30.0)
           (-30.0 30.0)
  end
  begin
     id 15 
     name upperneck
     direction 0.0958019 0.982476 -0.159884   
     length 1.60189   
     axis 0 0 0   XYZ
    dof rx ry rz
    limits (-20.0 45.0)
           (-30.0 30.0)
           (-30.0 30.0)
  end
  begin
     id 16
     name head
     direction 0.032989 0.997338 -0.0650226  
     length 1.61681  
     axis 0 0 0   XYZ
    dof rx ry rz
    limits (-20.0 45.0)
           (-30.0 30.0)
           (-30.0 30.0)
  end
  begin
     id 17 
     name lclavicle
     direction 0.954279 0.298875 -0.00496069  
     length 2.99449  
     axis 0 0 0   XYZ
    dof ry rz
    limits (-20.0 10.0)
           (0.0 20.0)
  end
  begin
     id 18 
     name lhumerus
     direction 1 -4.48985e-011 -4.2057e-027   
     length 4.79185   
     axis 180 -30 -90   XYZ
    dof rx ry rz
    limits (-60.0 90.0)
           (-90.0 90.0)
           (-90.0 90.0)
  end
  begin
     id 19
     name lradius
     direction 1 -4.48945e-011 1.15441e-028   
     length 2.65553   
     axis 180 -30 -90   XYZ
    dof rx
    limits (-10.0 170.0)
  end
  begin
     id 20
     name lwrist
     direction 1 -4.4899e-011 4.8894e-028   
     length 1.32777   
     axis -2.56392e-016 90 90   XYZ
    dof ry
    limits (-180.0 0.0)
 end
  begin
     id 21 
     name lhand
     direction 1 -4.48908e-011 9.7788e-028   
     length 0.743904   
     axis -6.23971e-016 90 90   XYZ
    dof rx rz
    limits (-90.0 90.0)
           (-45.0 45.0)
  end
  begin
     id 22 
     name lfingers
     direction 1 -4.49068e-011 1.95576e-027   
     length 0.599754   
     axis -1.24794e-015 90 90   XYZ
    dof rx
    limits (0.0 90.0)
  end
  begin
     id 23
     name lthumb
     direction 0.707107 -6.34883e-011 0.707107   
     length 0.861131   
     axis -90 45 2.85299e-015   XYZ
    dof rx rz
    limits (-45.0 45.0)
           (-45.0 45.0)
  end
  begin
     id 24 
     name rclavicle
     direction -0.957921 0.286916 0.00811568   
     length 3.06817  
     axis 0 0 0   XYZ 
    dof ry rz
    limits (-10.0 20.0)
           (-20.0 0.0)
  end
  begin
     id 25 
     name rhumerus
     direction -1 -4.48971e-011 -3.07942e-027  
     length 4.77254   
     axis 180 30 90   XYZ
    dof rx ry rz
    limits (-90.0 60.0)
           (-90.0 90.0)
           (-90.0 90.0)
  end
  begin
     id 26 
     name rradius
     direction -1 -4.48957e-011 -9.6815e-028   
     length 2.75995   
     axis 180 30 90   XYZ
    dof rx
    limits (-10.0 170.0)
  end
  begin
     id 27 
     name rwrist
     direction -1 -4.48979e-011 4.8894e-028   
     length 1.37997   
     axis -2.56392e-016 -90 -90   XYZ
    dof ry
    limits (-180.0 0.0)
  end
  begin
     id 28
     name rhand
     direction -1 -4.48906e-011 9.7788e-028   
     length 0.701619   
     axis -6.23971e-016 -90 -90   XYZ
    dof rx rz
    limits (-90.0 90.0)
           (-45.0 45.0)
  end
  begin
     id 29
     name rfingers
     direction -1 -4.49018e-011 1.95576e-027   
     length 0.565663   
     axis -1.24794e-015 -90 -90   XYZ
    dof rx
    limits (0.0 90.0)
  end
  begin
     id 30
     name rthumb
     direction -0.707107 -6.34881e-011 0.707107   
     length 0.812183   
     axis -90 -45 -2.85299e-015   XYZ
    dof rx rz
    limits (-45.0 45.0)
           (-45.0 45.0)
  end
:hierarchy
  begin
    root lhipjoint rhipjoint lowerback
    lhipjoint lfemur
    lfemur ltibia
    ltibia lfoot
    lfoot ltoes
    rhipjoint rfemur
    rfemur rtibia
    rtibia rfoot
    rfoot rtoes
    lowerback upperback
    upperback thorax
    thorax lowerneck lclavicle rclavicle
    lowerneck upperneck
    upperneck head
    lclavicle lhumerus
    lhumerus lradius
    lradius lwrist
    lwrist lhand lthumb
    lhand lfingers
    rclavicle rhumerus
    rhumerus rradius
    rradius rwrist
    rwrist rhand rthumb
    rhand rfingers
  end

#!OML:ASF F:\VICON\USERDATA\INSTALL\rory3\rory3.ASF
:FULLY-SPECIFIED
:DEGREES
506
root 0.098199 16.1438 -0.111038 -1.52818 0.83355 -1.14559
lowerback 9.75604 0.246976 -0.872358
upperback -0.660976 0.235907 0.150733
thorax -6.17696 0.147145 0.614032
lowerneck -17.7296 -7.95325 -11.7507
upperneck 21.2278 -10.112 9.2011
head 10.8686 -4.55614 3.71623
rclavicle 1.16103e-014 8.34896e-015
rhumerus 41.7963 67.8451 -13.4802
rradius 102.063
rwrist -53.6686
rhand -0.369456 10.6323
rfingers 7.12502
rthumb 25.2365 -17.7188
lclavicle 1.16103e-014 8.34896e-015
lhumerus 33.9376 -36.4198 43.296
lradius 91.4815
lwrist 52.3685
lhand 3.51762 18.6011
lfingers 7.12502
lthumb 28.9551 46.3726
rfemur 1.44141 10.9547 19.1586
rtibia 13.4125
rfoot -10.1247 -12.1794
rtoes -5.78747
lfemur 4.05674 -11.4204 -16.008
ltibia 6.56459
lfoot -5.9663 9.59599
ltoes -11.7303
507
root 0.0996256 16.1459 -0.115155 -1.46148 0.68277 -1.07006
lowerback 9.71664 0.290252 -0.904031
upperback -0.690886 0.28938 0.139014
thorax -6.18725 0.174398 0.611683
lowerneck -17.6915 -7.91055 -11.7104
upperneck 21.2727 -10.0596 9.15702
head 10.8665 -4.53508 3.70408
rclavicle -8.70304e-015 4.96962e-015
rhumerus 42.0564 67.4484 -13.6692
rradius 103.674
rwrist -53.9687
rhand -0.0462504 10.8997
rfingers 7.12502
rthumb 25.5461 -17.4074
lclavicle -8.70304e-015 4.96962e-015
lhumerus 34.2009 -36.5603 42.9734
lradius 89.6441
lwrist 51.8981
lhand 3.3421 18.9256
lfingers 7.12502
lthumb 28.7874 46.7257
rfemur 1.3103 10.9795 19.0419
rtibia 13.4446
rfoot -10.1394 -12.0526
rtoes -5.55003
lfemur 4.06607 -11.2665 -16.076
ltibia 6.441
lfoot -5.93192 9.58113
ltoes -11.6868
508
root 0.101214 16.1475 -0.118951 -1.42339 0.539441 -1.17283
lowerback 9.71394 0.277652 -0.607956
upperback -0.713667 0.302954 0.0696527
thorax -6.20786 0.170184 0.370209
lowerneck -17.6937 -7.81699 -11.5801
upperneck 21.3259 -9.98434 9.21392
head 10.8731 -4.48381 3.71751
rclavicle 1.29086e-014 2.78299e-015
rhumerus 42.302 66.9425 -14.1209
rradius 105.203
rwrist -54.1633
rhand 0.0334345 11.312
rfingers 7.12502
rthumb 25.6224 -16.9842
lclavicle 1.29086e-014 2.78299e-015
lhumerus 34.6514 -36.8326 42.2469
lradius 87.7645
lwrist 51.5238
lhand 3.31291 19.4369
lfingers 7.12502
lthumb 28.7595 47.2418
rfemur 1.20642 11.0634 19.1328
rtibia 13.4694
rfoot -10.1143 -12.0007
rtoes -5.51448
lfemur 4.12728 -11.1267 -15.9657
ltibia 6.29993
lfoot -5.85514 9.57471
ltoes -11.6984
509
root 0.102861 16.1476 -0.120141 -1.40643 0.400141 -1.20881
lowerback 9.7356 0.259427 -0.453992
upperback -0.762842 0.294244 0.0329651
thorax -6.27093 0.160342 0.246166
lowerneck -17.6193 -7.719 -11.5058
upperneck 21.3688 -9.88761 9.24519
head 10.8604 -4.43263 3.73599
rclavicle 4.33599e-015 -3.97569e-016
rhumerus 42.474 66.3439 -14.6237
rradius 106.66
rwrist -54.3622
rhand 0.134238 11.8597
rfingers 7.12502
rthumb 25.7189 -16.4225
lclavicle 4.33599e-015 -3.97569e-016
lhumerus 34.8941 -37.2164 41.543
lradius 85.8014
lwrist 51.2076
lhand 3.57207 19.5616
lfingers 7.12502
lthumb 29.0071 47.3241
rfemur 1.14745 11.1569 19.1634
rtibia 13.4859
rfoot -10.0969 -11.9634
rtoes -5.53932
lfemur 4.21638 -10.9905 -15.9305
ltibia 6.1629
lfoot -5.77294 9.5762
ltoes -11.5813
510
root 0.103663 16.149 -0.123157 -1.37583 0.308758 -1.21154
lowerback 9.76895 0.266817 -0.466042
upperback -0.819105 0.305296 0.0788833
thorax -6.34975 0.167239 0.299128
lowerneck -17.5673 -7.68879 -11.5125
upperneck 21.4411 -9.84357 9.20215
head 10.8697 -4.41942 3.731
rclavicle 7.16557e-015 9.93923e-016
rhumerus 42.225 65.4755 -15.464
rradius 108.019
rwrist -54.8247
rhand 0.540038 12.0005
rfingers 7.12502
rthumb 26.1075 -16.2249
lclavicle 7.16557e-015 9.93923e-016
lhumerus 34.9718 -37.728 40.9622
lradius 83.9412
lwrist 51.069
lhand 3.93551 19.4159
lfingers 7.12502
lthumb 29.3541 47.1182
rfemur 1.11768 11.239 19.1613
rtibia 13.4331
rfoot -10.0939 -11.9553
rtoes -5.28343
lfemur 4.20759 -10.9006 -15.918
ltibia 6.1371
lfoot -5.74865 9.57334
ltoes -11.3732
511
root 0.105744 16.1499 -0.125135 -1.31549 0.241678 -1.09884
lowerback 9.72479 0.272794 -0.585028
upperback -0.850507 0.300393 0.0951441
thorax -6.3586 0.169314 0.384027
lowerneck -17.5779 -7.67487 -11.4952
upperneck 21.5401 -9.81641 9.12837
head 10.8996 -4.41335 3.7067
rclavicle -1.20296e-014 -3.97569e-016
rhumerus 41.7395 64.3666 -16.5639
rradius 109.353
rwrist -55.7022
rhand 0.787951 11.5878
rfingers 7.12502
rthumb 26.3449 -16.6023
lclavicle -1.20296e-014 -3.97569e-016
lhumerus 35.0299 -38.384 40.2205
lradius 82.3155
lwrist 50.9047
lhand 4.14008 19.4724
lfingers 7.12502
lthumb 29.5494 47.1403
rfemur 1.0627 11.1667 18.9918
rtibia 13.3813
rfoot -10.0813 -11.8112
rtoes -4.96767
lfemur 4.19608 -10.8288 -16.0431
ltibia 6.06539
lfoot -5.73083 9.60691
ltoes -11.2582
512
root 0.108141 16.1492 -0.125009 -1.31314 0.163913 -1.13108
lowerback 9.69987 0.252869 -0.537085
upperback -0.854501 0.282712 0.143489
thorax -6.34847 0.159852 0.410414
lowerneck -17.6116 -7.63492 -11.4284
upperneck 21.6576 -9.7539 9.01146
head 10.9312 -4.39137 3.66413
rclavicle 1.46976e-014 4.37326e-015
rhumerus 41.4385 63.2185 -17.4909
rradius 110.655
rwrist -56.735
rhand 0.164875 11.1168
rfingers 7.12502
rthumb 25.7483 -17.1612
lclavicle 1.46976e-014 4.37326e-015
lhumerus 35.2752 -39.1667 39.3461
lradius 80.7327
lwrist 50.6257
lhand 4.19608 19.9902
lfingers 7.12502
lthumb 29.6029 47.6487
rfemur 1.06772 11.1038 18.9986
rtibia 13.3328
rfoot -10.0238 -11.6981
rtoes -5.08364
lfemur 4.27409 -10.7546 -16.019
ltibia 5.96995
lfoot -5.76986 9.63123
ltoes -11.2411
513
root 0.111462 16.1495 -0.126142 -1.30856 0.070435 -1.16409
lowerback 9.70352 0.231334 -0.453171
upperback -0.872483 0.265972 0.176397
thorax -6.3691 0.149428 0.400103
lowerneck -17.5824 -7.60387 -11.397
upperneck 21.7169 -9.70883 8.94227
head 10.9363 -4.37698 3.64267
rclavicle -1.53064e-014 -2.78299e-015
rhumerus 41.1181 61.9798 -18.4648
rradius 111.84
rwrist -57.7237
rhand -0.536035 11.0929
rfingers 7.12502
rthumb 25.0768 -17.2806
lclavicle -1.53064e-014 -2.78299e-015
lhumerus 35.7391 -40.038 38.3121
lradius 79.1397
lwrist 50.4894
lhand 4.16459 20.6276
lfingers 7.12502
lthumb 29.5728 48.2914
rfemur 1.08562 11.0963 19.0139
rtibia 13.2564
rfoot -9.96949 -11.6253
rtoes -5.42187
lfemur 4.29705 -10.6646 -15.9903
ltibia 5.93835
lfoot -5.79936 9.61728
ltoes -11.2208
514
root 0.115612 16.1506 -0.129184 -1.2833 -0.0162302 -1.16055
lowerback 9.70208 0.221764 -0.435686
upperback -0.894829 0.257893 0.217417
thorax -6.39195 0.145708 0.434431
lowerneck -17.5863 -7.57959 -11.3993
upperneck 21.8186 -9.6692 8.89544
head 10.9674 -4.36414 3.63377
rclavicle 2.842e-015 -5.96354e-016
rhumerus 40.5943 60.5652 -19.6646
rradius 112.789
rwrist -58.6416
rhand -0.48309 11.207
rfingers 7.12502
rthumb 25.1276 -17.1594
lclavicle 2.842e-015 -5.96354e-016
lhumerus 36.2542 -40.9956 37.2558
lradius 77.6273
lwrist 50.4242
lhand 4.2825 20.9084
lfingers 7.12502
lthumb 29.6854 48.5522
rfemur 1.08372 11.0893 18.9753
rtibia 13.1498
rfoot -9.82909 -11.5546
rtoes -5.69347
lfemur 4.27355 -10.5786 -16.0043
ltibia 5.94196
lfoot -5.76754 9.59413
ltoes -11.2617
515
root 0.118131 16.1522 -0.133556 -1.26973 -0.0849662 -1.23442
lowerback 9.69693 0.220578 -0.439848
upperback -0.886977 0.26326 0.333898
thorax -6.38141 0.150587 0.558064
lowerneck -17.6581 -7.5588 -11.3819
upperneck 21.9394 -9.61181 8.76787
head 11.0108 -4.3487 3.59342
rclavicle 8.20919e-015 1.09332e-015
rhumerus 40.2012 59.0114 -20.6459
rradius 113.557
rwrist -59.2736
rhand -0.285437 11.2992
rfingers 7.12502
rthumb 25.3169 -17.0405
lclavicle 8.20919e-015 1.09332e-015
lhumerus 36.9404 -42.0447 36.11
lradius 76.1011
lwrist 50.3237
lhand 4.43846 20.9063
lfingers 7.12502
lthumb 29.8342 48.5235
rfemur 1.08632 11.1143 19.0413
rtibia 13.0458
rfoot -9.71964 -11.5203
rtoes -6.03893
lfemur 4.24842 -10.5142 -15.9189
ltibia 5.94582
lfoot -5.72714 9.59273
ltoes -11.1519
